<mxfile host="app.diagrams.net" modified="2020-12-17T14:58:56.264Z" agent="5.0 (X11; Linux x86_64) AppleWebKit/537.36 (KHTML, like Gecko) Chrome/87.0.4280.88 Safari/537.36" etag="1DD2s_OPqCkFXqE4Rwu5" version="14.0.4" type="github">
  <diagram id="S4fYWXtu835OQgn1I5YK" name="Page-1">
    <mxGraphModel dx="1391" dy="733" grid="1" gridSize="10" guides="1" tooltips="1" connect="1" arrows="1" fold="1" page="1" pageScale="1" pageWidth="1169" pageHeight="827" math="0" shadow="0">
      <root>
        <mxCell id="0" />
        <mxCell id="1" parent="0" />
        <mxCell id="RHRKbL2DitLfpEAMd2Nn-12" style="edgeStyle=orthogonalEdgeStyle;rounded=0;orthogonalLoop=1;jettySize=auto;html=1;exitX=0.5;exitY=1;exitDx=0;exitDy=0;entryX=0.5;entryY=0;entryDx=0;entryDy=0;endArrow=none;endFill=0;strokeWidth=2;" parent="1" source="EzJb_2AODaSsY35CWrnH-1" target="crs3VVtKYW3oaejAtJkh-16" edge="1">
          <mxGeometry relative="1" as="geometry" />
        </mxCell>
        <mxCell id="RHRKbL2DitLfpEAMd2Nn-70" style="edgeStyle=orthogonalEdgeStyle;rounded=0;orthogonalLoop=1;jettySize=auto;html=1;entryX=0.5;entryY=1;entryDx=0;entryDy=0;endArrow=none;endFill=0;" parent="1" source="EzJb_2AODaSsY35CWrnH-1" target="UPPR47DDisOAXcnvOgVC-14" edge="1">
          <mxGeometry relative="1" as="geometry" />
        </mxCell>
        <mxCell id="RHRKbL2DitLfpEAMd2Nn-118" style="edgeStyle=orthogonalEdgeStyle;rounded=0;orthogonalLoop=1;jettySize=auto;html=1;endArrow=none;endFill=0;exitX=0.5;exitY=1;exitDx=0;exitDy=0;entryX=0.5;entryY=0;entryDx=0;entryDy=0;strokeWidth=2;" parent="1" source="EzJb_2AODaSsY35CWrnH-1" target="RHRKbL2DitLfpEAMd2Nn-113" edge="1">
          <mxGeometry relative="1" as="geometry">
            <Array as="points">
              <mxPoint x="470" y="200" />
              <mxPoint x="560" y="200" />
              <mxPoint x="560" y="290" />
              <mxPoint x="471" y="290" />
            </Array>
          </mxGeometry>
        </mxCell>
        <mxCell id="EzJb_2AODaSsY35CWrnH-1" value="SHIFT REGISTER samples" style="rounded=0;whiteSpace=wrap;html=1;fillColor=#dae8fc;strokeColor=#6c8ebf;" parent="1" vertex="1">
          <mxGeometry x="310" y="148.13" width="320" height="40" as="geometry" />
        </mxCell>
        <mxCell id="RHRKbL2DitLfpEAMd2Nn-50" style="edgeStyle=orthogonalEdgeStyle;rounded=0;orthogonalLoop=1;jettySize=auto;html=1;entryX=1;entryY=0.5;entryDx=0;entryDy=0;endArrow=none;endFill=0;" parent="1" source="EzJb_2AODaSsY35CWrnH-27" target="EzJb_2AODaSsY35CWrnH-49" edge="1">
          <mxGeometry relative="1" as="geometry" />
        </mxCell>
        <mxCell id="RHRKbL2DitLfpEAMd2Nn-55" style="edgeStyle=orthogonalEdgeStyle;rounded=0;orthogonalLoop=1;jettySize=auto;html=1;entryX=1;entryY=0.5;entryDx=0;entryDy=0;endArrow=none;endFill=0;" parent="1" source="EzJb_2AODaSsY35CWrnH-27" target="crs3VVtKYW3oaejAtJkh-29" edge="1">
          <mxGeometry relative="1" as="geometry" />
        </mxCell>
        <mxCell id="RHRKbL2DitLfpEAMd2Nn-56" style="edgeStyle=orthogonalEdgeStyle;rounded=0;orthogonalLoop=1;jettySize=auto;html=1;entryX=1;entryY=0.5;entryDx=0;entryDy=0;endArrow=none;endFill=0;" parent="1" source="EzJb_2AODaSsY35CWrnH-27" target="UPPR47DDisOAXcnvOgVC-4" edge="1">
          <mxGeometry relative="1" as="geometry" />
        </mxCell>
        <mxCell id="RHRKbL2DitLfpEAMd2Nn-57" style="edgeStyle=orthogonalEdgeStyle;rounded=0;orthogonalLoop=1;jettySize=auto;html=1;entryX=1;entryY=0.5;entryDx=0;entryDy=0;endArrow=none;endFill=0;" parent="1" source="EzJb_2AODaSsY35CWrnH-27" target="UPPR47DDisOAXcnvOgVC-6" edge="1">
          <mxGeometry relative="1" as="geometry" />
        </mxCell>
        <mxCell id="RHRKbL2DitLfpEAMd2Nn-58" style="edgeStyle=orthogonalEdgeStyle;rounded=0;orthogonalLoop=1;jettySize=auto;html=1;entryX=1;entryY=0.5;entryDx=0;entryDy=0;endArrow=none;endFill=0;" parent="1" source="EzJb_2AODaSsY35CWrnH-27" target="RHRKbL2DitLfpEAMd2Nn-46" edge="1">
          <mxGeometry relative="1" as="geometry" />
        </mxCell>
        <mxCell id="RHRKbL2DitLfpEAMd2Nn-59" style="edgeStyle=orthogonalEdgeStyle;rounded=0;orthogonalLoop=1;jettySize=auto;html=1;entryX=1;entryY=0.5;entryDx=0;entryDy=0;endArrow=none;endFill=0;" parent="1" source="EzJb_2AODaSsY35CWrnH-27" target="RHRKbL2DitLfpEAMd2Nn-47" edge="1">
          <mxGeometry relative="1" as="geometry" />
        </mxCell>
        <mxCell id="RHRKbL2DitLfpEAMd2Nn-60" style="edgeStyle=orthogonalEdgeStyle;rounded=0;orthogonalLoop=1;jettySize=auto;html=1;entryX=1;entryY=0.5;entryDx=0;entryDy=0;endArrow=none;endFill=0;" parent="1" source="EzJb_2AODaSsY35CWrnH-27" target="RHRKbL2DitLfpEAMd2Nn-48" edge="1">
          <mxGeometry relative="1" as="geometry" />
        </mxCell>
        <mxCell id="RHRKbL2DitLfpEAMd2Nn-61" style="edgeStyle=orthogonalEdgeStyle;rounded=0;orthogonalLoop=1;jettySize=auto;html=1;entryX=1;entryY=0.5;entryDx=0;entryDy=0;endArrow=none;endFill=0;" parent="1" source="EzJb_2AODaSsY35CWrnH-27" target="RHRKbL2DitLfpEAMd2Nn-49" edge="1">
          <mxGeometry relative="1" as="geometry" />
        </mxCell>
        <mxCell id="EzJb_2AODaSsY35CWrnH-27" value="COUNTER_SH" style="rounded=0;whiteSpace=wrap;html=1;fillColor=#f8cecc;strokeColor=#b85450;" parent="1" vertex="1">
          <mxGeometry x="723" y="615" width="120" height="40" as="geometry" />
        </mxCell>
        <mxCell id="wujRa81Mza8_L-a6n5G7-14" style="edgeStyle=orthogonalEdgeStyle;rounded=0;orthogonalLoop=1;jettySize=auto;html=1;entryX=0.067;entryY=0.896;entryDx=0;entryDy=0;entryPerimeter=0;endArrow=none;endFill=0;" parent="1" source="EzJb_2AODaSsY35CWrnH-49" target="wujRa81Mza8_L-a6n5G7-1" edge="1">
          <mxGeometry relative="1" as="geometry" />
        </mxCell>
        <mxCell id="EzJb_2AODaSsY35CWrnH-49" value="= 16" style="rounded=0;whiteSpace=wrap;html=1;" parent="1" vertex="1">
          <mxGeometry x="576" y="520" width="40" height="20" as="geometry" />
        </mxCell>
        <mxCell id="wujRa81Mza8_L-a6n5G7-9" style="edgeStyle=orthogonalEdgeStyle;rounded=0;orthogonalLoop=1;jettySize=auto;html=1;endArrow=none;endFill=0;" parent="1" source="crs3VVtKYW3oaejAtJkh-16" edge="1">
          <mxGeometry relative="1" as="geometry">
            <mxPoint x="360" y="278" as="targetPoint" />
            <Array as="points">
              <mxPoint x="470" y="278" />
            </Array>
          </mxGeometry>
        </mxCell>
        <mxCell id="wujRa81Mza8_L-a6n5G7-13" value="start" style="edgeLabel;html=1;align=center;verticalAlign=middle;resizable=0;points=[];" parent="wujRa81Mza8_L-a6n5G7-9" vertex="1" connectable="0">
          <mxGeometry x="0.2481" y="4" relative="1" as="geometry">
            <mxPoint x="-39.87" as="offset" />
          </mxGeometry>
        </mxCell>
        <mxCell id="crs3VVtKYW3oaejAtJkh-16" value="START DETECTOR" style="rounded=0;whiteSpace=wrap;html=1;fillColor=#fff2cc;strokeColor=#d6b656;" parent="1" vertex="1">
          <mxGeometry x="410" y="228.13" width="120" height="40" as="geometry" />
        </mxCell>
        <mxCell id="wujRa81Mza8_L-a6n5G7-22" style="edgeStyle=orthogonalEdgeStyle;rounded=0;orthogonalLoop=1;jettySize=auto;html=1;entryX=0.067;entryY=0.832;entryDx=0;entryDy=0;entryPerimeter=0;endArrow=none;endFill=0;" parent="1" source="crs3VVtKYW3oaejAtJkh-29" target="wujRa81Mza8_L-a6n5G7-1" edge="1">
          <mxGeometry relative="1" as="geometry" />
        </mxCell>
        <mxCell id="crs3VVtKYW3oaejAtJkh-29" value="= 33" style="rounded=0;whiteSpace=wrap;html=1;" parent="1" vertex="1">
          <mxGeometry x="576" y="550" width="40" height="20" as="geometry" />
        </mxCell>
        <mxCell id="wujRa81Mza8_L-a6n5G7-23" style="edgeStyle=orthogonalEdgeStyle;rounded=0;orthogonalLoop=1;jettySize=auto;html=1;entryX=0.167;entryY=0.695;entryDx=0;entryDy=0;entryPerimeter=0;endArrow=none;endFill=0;" parent="1" source="UPPR47DDisOAXcnvOgVC-4" target="wujRa81Mza8_L-a6n5G7-1" edge="1">
          <mxGeometry relative="1" as="geometry" />
        </mxCell>
        <mxCell id="UPPR47DDisOAXcnvOgVC-4" value="= 50" style="rounded=0;whiteSpace=wrap;html=1;" parent="1" vertex="1">
          <mxGeometry x="576" y="580" width="40" height="20" as="geometry" />
        </mxCell>
        <mxCell id="wujRa81Mza8_L-a6n5G7-24" style="edgeStyle=orthogonalEdgeStyle;rounded=0;orthogonalLoop=1;jettySize=auto;html=1;entryX=0.233;entryY=0.585;entryDx=0;entryDy=0;entryPerimeter=0;endArrow=none;endFill=0;" parent="1" source="L7aabip-E4mEwhnxGkzP-7" target="wujRa81Mza8_L-a6n5G7-1" edge="1">
          <mxGeometry relative="1" as="geometry">
            <Array as="points" />
          </mxGeometry>
        </mxCell>
        <mxCell id="L7aabip-E4mEwhnxGkzP-6" value="flag_68" style="edgeStyle=orthogonalEdgeStyle;rounded=0;orthogonalLoop=1;jettySize=auto;html=1;" edge="1" parent="1" source="UPPR47DDisOAXcnvOgVC-6">
          <mxGeometry x="0.8105" relative="1" as="geometry">
            <mxPoint x="440" y="800.5555725097656" as="targetPoint" />
            <Array as="points">
              <mxPoint x="550" y="620" />
              <mxPoint x="550" y="801" />
            </Array>
            <mxPoint as="offset" />
          </mxGeometry>
        </mxCell>
        <mxCell id="UPPR47DDisOAXcnvOgVC-6" value="= 67" style="rounded=0;whiteSpace=wrap;html=1;" parent="1" vertex="1">
          <mxGeometry x="576" y="610" width="40" height="20" as="geometry" />
        </mxCell>
        <mxCell id="RHRKbL2DitLfpEAMd2Nn-13" style="edgeStyle=orthogonalEdgeStyle;rounded=0;orthogonalLoop=1;jettySize=auto;html=1;entryX=0;entryY=0.5;entryDx=0;entryDy=0;endArrow=none;endFill=0;" parent="1" source="UPPR47DDisOAXcnvOgVC-14" target="UPPR47DDisOAXcnvOgVC-20" edge="1">
          <mxGeometry relative="1" as="geometry">
            <Array as="points">
              <mxPoint x="472" y="58" />
              <mxPoint x="250" y="58" />
              <mxPoint x="250" y="388" />
            </Array>
          </mxGeometry>
        </mxCell>
        <mxCell id="UPPR47DDisOAXcnvOgVC-14" value="VOTER" style="rounded=0;whiteSpace=wrap;html=1;fillColor=#fff2cc;strokeColor=#d6b656;" parent="1" vertex="1">
          <mxGeometry x="430" y="68.55000000000001" width="80" height="40" as="geometry" />
        </mxCell>
        <mxCell id="RHRKbL2DitLfpEAMd2Nn-67" style="edgeStyle=orthogonalEdgeStyle;rounded=0;orthogonalLoop=1;jettySize=auto;html=1;entryX=0.983;entryY=0.608;entryDx=0;entryDy=0;entryPerimeter=0;endArrow=classic;endFill=1;strokeWidth=2;" parent="1" source="UPPR47DDisOAXcnvOgVC-20" target="UPPR47DDisOAXcnvOgVC-36" edge="1">
          <mxGeometry relative="1" as="geometry">
            <Array as="points">
              <mxPoint x="472" y="460" />
            </Array>
          </mxGeometry>
        </mxCell>
        <mxCell id="UPPR47DDisOAXcnvOgVC-20" value="SHIFT REGISTER data" style="rounded=0;whiteSpace=wrap;html=1;fillColor=#dae8fc;strokeColor=#6c8ebf;" parent="1" vertex="1">
          <mxGeometry x="310" y="374.24" width="320" height="40" as="geometry" />
        </mxCell>
        <mxCell id="UPPR47DDisOAXcnvOgVC-36" value="Pout" style="text;html=1;align=center;verticalAlign=middle;resizable=0;points=[];autosize=1;" parent="1" vertex="1">
          <mxGeometry y="448.12" width="40" height="20" as="geometry" />
        </mxCell>
        <mxCell id="RHRKbL2DitLfpEAMd2Nn-26" style="edgeStyle=orthogonalEdgeStyle;rounded=0;orthogonalLoop=1;jettySize=auto;html=1;entryX=0;entryY=0.5;entryDx=0;entryDy=0;endArrow=none;endFill=0;" parent="1" source="UPPR47DDisOAXcnvOgVC-39" target="EzJb_2AODaSsY35CWrnH-1" edge="1">
          <mxGeometry relative="1" as="geometry">
            <Array as="points">
              <mxPoint x="290" y="18" />
              <mxPoint x="290" y="168" />
            </Array>
          </mxGeometry>
        </mxCell>
        <mxCell id="UPPR47DDisOAXcnvOgVC-39" value="rxd" style="text;html=1;align=center;verticalAlign=middle;resizable=0;points=[];autosize=1;" parent="1" vertex="1">
          <mxGeometry x="780" width="30" height="20" as="geometry" />
        </mxCell>
        <mxCell id="RHRKbL2DitLfpEAMd2Nn-73" value="flag_rxfull" style="edgeStyle=orthogonalEdgeStyle;rounded=0;orthogonalLoop=1;jettySize=auto;html=1;endArrow=none;endFill=0;" parent="1" source="nKllNJIWQF2YU-FmXI6r-7" edge="1">
          <mxGeometry relative="1" as="geometry">
            <mxPoint x="206" y="635" as="targetPoint" />
            <Array as="points">
              <mxPoint x="220" y="635" />
              <mxPoint x="220" y="635" />
            </Array>
          </mxGeometry>
        </mxCell>
        <mxCell id="nKllNJIWQF2YU-FmXI6r-7" value="COUNTER_RX_FULL" style="rounded=0;whiteSpace=wrap;html=1;fillColor=#f8cecc;strokeColor=#b85450;" parent="1" vertex="1">
          <mxGeometry x="266" y="614.79" width="120" height="40" as="geometry" />
        </mxCell>
        <mxCell id="RHRKbL2DitLfpEAMd2Nn-6" style="edgeStyle=orthogonalEdgeStyle;rounded=0;orthogonalLoop=1;jettySize=auto;html=1;endArrow=none;endFill=0;" parent="1" source="RHRKbL2DitLfpEAMd2Nn-5" edge="1">
          <mxGeometry relative="1" as="geometry">
            <mxPoint x="512" y="98.13000000000002" as="targetPoint" />
            <Array as="points">
              <mxPoint x="512" y="98.13000000000002" />
            </Array>
          </mxGeometry>
        </mxCell>
        <mxCell id="RHRKbL2DitLfpEAMd2Nn-5" value="voter_en" style="text;html=1;align=center;verticalAlign=middle;resizable=0;points=[];autosize=1;" parent="1" vertex="1">
          <mxGeometry x="665" y="88.55000000000001" width="60" height="20" as="geometry" />
        </mxCell>
        <mxCell id="RHRKbL2DitLfpEAMd2Nn-19" style="edgeStyle=orthogonalEdgeStyle;rounded=0;orthogonalLoop=1;jettySize=auto;html=1;entryX=1;entryY=0.75;entryDx=0;entryDy=0;endArrow=none;endFill=0;" parent="1" source="RHRKbL2DitLfpEAMd2Nn-15" target="EzJb_2AODaSsY35CWrnH-1" edge="1">
          <mxGeometry relative="1" as="geometry" />
        </mxCell>
        <mxCell id="RHRKbL2DitLfpEAMd2Nn-15" value="ld_en" style="text;html=1;align=center;verticalAlign=middle;resizable=0;points=[];autosize=1;" parent="1" vertex="1">
          <mxGeometry x="669.9999999999999" y="168.13" width="40" height="20" as="geometry" />
        </mxCell>
        <mxCell id="RHRKbL2DitLfpEAMd2Nn-24" style="edgeStyle=orthogonalEdgeStyle;rounded=0;orthogonalLoop=1;jettySize=auto;html=1;entryX=1;entryY=0.25;entryDx=0;entryDy=0;endArrow=none;endFill=0;" parent="1" source="RHRKbL2DitLfpEAMd2Nn-22" target="EzJb_2AODaSsY35CWrnH-1" edge="1">
          <mxGeometry relative="1" as="geometry" />
        </mxCell>
        <mxCell id="RHRKbL2DitLfpEAMd2Nn-22" value="sh_en" style="text;html=1;align=center;verticalAlign=middle;resizable=0;points=[];autosize=1;" parent="1" vertex="1">
          <mxGeometry x="669.9999999999999" y="148.13000000000002" width="50" height="20" as="geometry" />
        </mxCell>
        <mxCell id="RHRKbL2DitLfpEAMd2Nn-110" style="edgeStyle=orthogonalEdgeStyle;rounded=0;orthogonalLoop=1;jettySize=auto;html=1;entryX=1;entryY=0.25;entryDx=0;entryDy=0;endArrow=none;endFill=0;" parent="1" source="RHRKbL2DitLfpEAMd2Nn-27" target="EzJb_2AODaSsY35CWrnH-27" edge="1">
          <mxGeometry relative="1" as="geometry" />
        </mxCell>
        <mxCell id="RHRKbL2DitLfpEAMd2Nn-27" value="count_en" style="text;html=1;align=center;verticalAlign=middle;resizable=0;points=[];autosize=1;" parent="1" vertex="1">
          <mxGeometry x="885.9999999999999" y="615" width="60" height="20" as="geometry" />
        </mxCell>
        <mxCell id="RHRKbL2DitLfpEAMd2Nn-109" style="edgeStyle=orthogonalEdgeStyle;rounded=0;orthogonalLoop=1;jettySize=auto;html=1;entryX=1;entryY=0.75;entryDx=0;entryDy=0;endArrow=none;endFill=0;" parent="1" source="RHRKbL2DitLfpEAMd2Nn-28" target="EzJb_2AODaSsY35CWrnH-27" edge="1">
          <mxGeometry relative="1" as="geometry" />
        </mxCell>
        <mxCell id="RHRKbL2DitLfpEAMd2Nn-28" value="count_rst" style="text;html=1;align=center;verticalAlign=middle;resizable=0;points=[];autosize=1;" parent="1" vertex="1">
          <mxGeometry x="885.9999999999999" y="635" width="60" height="20" as="geometry" />
        </mxCell>
        <mxCell id="RHRKbL2DitLfpEAMd2Nn-43" style="edgeStyle=orthogonalEdgeStyle;rounded=0;orthogonalLoop=1;jettySize=auto;html=1;entryX=1;entryY=0.75;entryDx=0;entryDy=0;endArrow=none;endFill=0;" parent="1" source="RHRKbL2DitLfpEAMd2Nn-31" target="UPPR47DDisOAXcnvOgVC-20" edge="1">
          <mxGeometry relative="1" as="geometry" />
        </mxCell>
        <mxCell id="RHRKbL2DitLfpEAMd2Nn-31" value="ld_en" style="text;html=1;align=center;verticalAlign=middle;resizable=0;points=[];autosize=1;" parent="1" vertex="1">
          <mxGeometry x="669.9999999999999" y="394.24" width="40" height="20" as="geometry" />
        </mxCell>
        <mxCell id="RHRKbL2DitLfpEAMd2Nn-42" style="edgeStyle=orthogonalEdgeStyle;rounded=0;orthogonalLoop=1;jettySize=auto;html=1;entryX=1;entryY=0.25;entryDx=0;entryDy=0;endArrow=none;endFill=0;" parent="1" source="RHRKbL2DitLfpEAMd2Nn-32" target="UPPR47DDisOAXcnvOgVC-20" edge="1">
          <mxGeometry relative="1" as="geometry" />
        </mxCell>
        <mxCell id="RHRKbL2DitLfpEAMd2Nn-32" value="sh_en" style="text;html=1;align=center;verticalAlign=middle;resizable=0;points=[];autosize=1;" parent="1" vertex="1">
          <mxGeometry x="664.9999999999999" y="374.24" width="50" height="20" as="geometry" />
        </mxCell>
        <mxCell id="RHRKbL2DitLfpEAMd2Nn-36" value="" style="triangle;whiteSpace=wrap;html=1;rotation=-90;" parent="1" vertex="1">
          <mxGeometry x="620.03" y="178.34000000000003" width="9.97" height="9.79" as="geometry" />
        </mxCell>
        <mxCell id="RHRKbL2DitLfpEAMd2Nn-38" value="" style="triangle;whiteSpace=wrap;html=1;rotation=-90;" parent="1" vertex="1">
          <mxGeometry x="500.03" y="98.76000000000005" width="9.97" height="9.79" as="geometry" />
        </mxCell>
        <mxCell id="RHRKbL2DitLfpEAMd2Nn-39" value="" style="triangle;whiteSpace=wrap;html=1;rotation=-90;" parent="1" vertex="1">
          <mxGeometry x="620.03" y="404.45000000000005" width="9.97" height="9.79" as="geometry" />
        </mxCell>
        <mxCell id="RHRKbL2DitLfpEAMd2Nn-40" value="" style="triangle;whiteSpace=wrap;html=1;rotation=-90;" parent="1" vertex="1">
          <mxGeometry x="833.03" y="645" width="9.97" height="9.79" as="geometry" />
        </mxCell>
        <mxCell id="RHRKbL2DitLfpEAMd2Nn-41" value="" style="triangle;whiteSpace=wrap;html=1;rotation=-90;" parent="1" vertex="1">
          <mxGeometry x="377.03" y="644.21" width="9.97" height="9.79" as="geometry" />
        </mxCell>
        <mxCell id="wujRa81Mza8_L-a6n5G7-28" style="edgeStyle=orthogonalEdgeStyle;rounded=0;orthogonalLoop=1;jettySize=auto;html=1;entryX=0.233;entryY=0.374;entryDx=0;entryDy=0;entryPerimeter=0;endArrow=none;endFill=0;" parent="1" source="RHRKbL2DitLfpEAMd2Nn-46" target="wujRa81Mza8_L-a6n5G7-1" edge="1">
          <mxGeometry relative="1" as="geometry" />
        </mxCell>
        <mxCell id="RHRKbL2DitLfpEAMd2Nn-46" value="= 84" style="rounded=0;whiteSpace=wrap;html=1;" parent="1" vertex="1">
          <mxGeometry x="576" y="640.63" width="40" height="19.37" as="geometry" />
        </mxCell>
        <mxCell id="wujRa81Mza8_L-a6n5G7-27" style="edgeStyle=orthogonalEdgeStyle;rounded=0;orthogonalLoop=1;jettySize=auto;html=1;entryX=0.175;entryY=0.25;entryDx=0;entryDy=0;entryPerimeter=0;endArrow=none;endFill=0;" parent="1" source="RHRKbL2DitLfpEAMd2Nn-47" target="wujRa81Mza8_L-a6n5G7-1" edge="1">
          <mxGeometry relative="1" as="geometry" />
        </mxCell>
        <mxCell id="RHRKbL2DitLfpEAMd2Nn-47" value="= 101" style="rounded=0;whiteSpace=wrap;html=1;" parent="1" vertex="1">
          <mxGeometry x="576" y="670" width="40" height="20" as="geometry" />
        </mxCell>
        <mxCell id="wujRa81Mza8_L-a6n5G7-26" style="edgeStyle=orthogonalEdgeStyle;rounded=0;orthogonalLoop=1;jettySize=auto;html=1;entryX=0.1;entryY=0.159;entryDx=0;entryDy=0;entryPerimeter=0;endArrow=none;endFill=0;" parent="1" source="RHRKbL2DitLfpEAMd2Nn-48" target="wujRa81Mza8_L-a6n5G7-1" edge="1">
          <mxGeometry relative="1" as="geometry" />
        </mxCell>
        <mxCell id="RHRKbL2DitLfpEAMd2Nn-48" value="= 118" style="rounded=0;whiteSpace=wrap;html=1;" parent="1" vertex="1">
          <mxGeometry x="576" y="700.21" width="40" height="20" as="geometry" />
        </mxCell>
        <mxCell id="wujRa81Mza8_L-a6n5G7-25" style="edgeStyle=orthogonalEdgeStyle;rounded=0;orthogonalLoop=1;jettySize=auto;html=1;entryX=0.033;entryY=0.095;entryDx=0;entryDy=0;entryPerimeter=0;endArrow=none;endFill=0;" parent="1" source="RHRKbL2DitLfpEAMd2Nn-49" target="wujRa81Mza8_L-a6n5G7-1" edge="1">
          <mxGeometry relative="1" as="geometry" />
        </mxCell>
        <mxCell id="Q8k3sArKD3jvTUDeqq7h-2" value="flag_shift_data" style="edgeStyle=orthogonalEdgeStyle;rounded=0;orthogonalLoop=1;jettySize=auto;html=1;exitX=0;exitY=0.5;exitDx=0;exitDy=0;" parent="1" source="RHRKbL2DitLfpEAMd2Nn-49" edge="1">
          <mxGeometry x="0.4175" relative="1" as="geometry">
            <mxPoint x="410" y="770" as="targetPoint" />
            <Array as="points">
              <mxPoint x="570" y="740" />
              <mxPoint x="570" y="770" />
              <mxPoint x="420" y="770" />
            </Array>
            <mxPoint as="offset" />
          </mxGeometry>
        </mxCell>
        <mxCell id="RHRKbL2DitLfpEAMd2Nn-49" value="= 136" style="rounded=0;whiteSpace=wrap;html=1;" parent="1" vertex="1">
          <mxGeometry x="576" y="730" width="40" height="20" as="geometry" />
        </mxCell>
        <mxCell id="RHRKbL2DitLfpEAMd2Nn-66" value="" style="endArrow=none;html=1;" parent="1" edge="1">
          <mxGeometry width="50" height="50" relative="1" as="geometry">
            <mxPoint x="467" y="419.24" as="sourcePoint" />
            <mxPoint x="477" y="429.24" as="targetPoint" />
            <Array as="points" />
          </mxGeometry>
        </mxCell>
        <mxCell id="RHRKbL2DitLfpEAMd2Nn-68" value="8" style="text;html=1;align=center;verticalAlign=middle;resizable=0;points=[];autosize=1;" parent="1" vertex="1">
          <mxGeometry x="452" y="414.24" width="20" height="20" as="geometry" />
        </mxCell>
        <mxCell id="RHRKbL2DitLfpEAMd2Nn-71" value="count_out" style="text;html=1;align=center;verticalAlign=middle;resizable=0;points=[];autosize=1;" parent="1" vertex="1">
          <mxGeometry x="683" y="590" width="70" height="20" as="geometry" />
        </mxCell>
        <mxCell id="wujRa81Mza8_L-a6n5G7-12" value="stop" style="edgeStyle=orthogonalEdgeStyle;rounded=0;orthogonalLoop=1;jettySize=auto;html=1;endArrow=none;endFill=0;" parent="1" source="RHRKbL2DitLfpEAMd2Nn-113" edge="1">
          <mxGeometry x="1" relative="1" as="geometry">
            <mxPoint x="370" y="360" as="targetPoint" />
            <Array as="points">
              <mxPoint x="471" y="360" />
            </Array>
            <mxPoint as="offset" />
          </mxGeometry>
        </mxCell>
        <mxCell id="RHRKbL2DitLfpEAMd2Nn-113" value="STOP DETECTOR" style="rounded=0;whiteSpace=wrap;html=1;fillColor=#fff2cc;strokeColor=#d6b656;" parent="1" vertex="1">
          <mxGeometry x="411" y="308.12" width="120" height="40" as="geometry" />
        </mxCell>
        <mxCell id="RHRKbL2DitLfpEAMd2Nn-137" value="" style="endArrow=none;html=1;" parent="1" edge="1">
          <mxGeometry width="50" height="50" relative="1" as="geometry">
            <mxPoint x="465" y="193.13000000000005" as="sourcePoint" />
            <mxPoint x="475" y="203.13000000000017" as="targetPoint" />
            <Array as="points" />
          </mxGeometry>
        </mxCell>
        <mxCell id="RHRKbL2DitLfpEAMd2Nn-138" value="8" style="text;html=1;align=center;verticalAlign=middle;resizable=0;points=[];autosize=1;" parent="1" vertex="1">
          <mxGeometry x="447" y="188.13000000000005" width="20" height="20" as="geometry" />
        </mxCell>
        <mxCell id="RHRKbL2DitLfpEAMd2Nn-139" value="" style="endArrow=none;html=1;" parent="1" edge="1">
          <mxGeometry width="50" height="50" relative="1" as="geometry">
            <mxPoint x="464.5" y="127" as="sourcePoint" />
            <mxPoint x="474.5" y="137.0000000000001" as="targetPoint" />
            <Array as="points" />
          </mxGeometry>
        </mxCell>
        <mxCell id="RHRKbL2DitLfpEAMd2Nn-140" value="3" style="text;html=1;align=center;verticalAlign=middle;resizable=0;points=[];autosize=1;" parent="1" vertex="1">
          <mxGeometry x="447" y="120" width="20" height="20" as="geometry" />
        </mxCell>
        <mxCell id="1sBniW0PQ9mNnDQjFQEx-6" style="edgeStyle=orthogonalEdgeStyle;rounded=0;orthogonalLoop=1;jettySize=auto;html=1;entryX=0;entryY=0.5;entryDx=0;entryDy=0;endArrow=none;endFill=0;strokeWidth=1;" parent="1" source="RHRKbL2DitLfpEAMd2Nn-141" target="1sBniW0PQ9mNnDQjFQEx-1" edge="1">
          <mxGeometry relative="1" as="geometry" />
        </mxCell>
        <mxCell id="RHRKbL2DitLfpEAMd2Nn-141" value="" style="shape=or;whiteSpace=wrap;html=1;rounded=0;glass=0;sketch=0;strokeColor=#000000;strokeWidth=1;fillColor=#ffffff;gradientColor=none;rotation=90;" parent="1" vertex="1">
          <mxGeometry x="892.48" y="880" width="59" height="184.81" as="geometry" />
        </mxCell>
        <mxCell id="RHRKbL2DitLfpEAMd2Nn-166" style="edgeStyle=orthogonalEdgeStyle;rounded=0;orthogonalLoop=1;jettySize=auto;html=1;entryX=-0.004;entryY=0.944;entryDx=0;entryDy=0;entryPerimeter=0;endArrow=oval;endFill=1;strokeWidth=1;" parent="1" source="RHRKbL2DitLfpEAMd2Nn-142" target="RHRKbL2DitLfpEAMd2Nn-141" edge="1">
          <mxGeometry relative="1" as="geometry" />
        </mxCell>
        <mxCell id="RHRKbL2DitLfpEAMd2Nn-142" value="b0" style="text;html=1;align=center;verticalAlign=middle;resizable=0;points=[];autosize=1;" parent="1" vertex="1">
          <mxGeometry x="801" y="882.36" width="30" height="20" as="geometry" />
        </mxCell>
        <mxCell id="RHRKbL2DitLfpEAMd2Nn-165" style="edgeStyle=orthogonalEdgeStyle;rounded=0;orthogonalLoop=1;jettySize=auto;html=1;entryX=0.005;entryY=0.845;entryDx=0;entryDy=0;entryPerimeter=0;endArrow=oval;endFill=1;strokeWidth=1;" parent="1" source="RHRKbL2DitLfpEAMd2Nn-143" edge="1">
          <mxGeometry relative="1" as="geometry">
            <mxPoint x="849" y="901.36" as="sourcePoint" />
            <mxPoint x="861.2205500000002" y="942.2000000000002" as="targetPoint" />
            <Array as="points">
              <mxPoint x="851" y="922.36" />
              <mxPoint x="861" y="922.36" />
            </Array>
          </mxGeometry>
        </mxCell>
        <mxCell id="RHRKbL2DitLfpEAMd2Nn-143" value="b1" style="text;html=1;align=center;verticalAlign=middle;resizable=0;points=[];autosize=1;" parent="1" vertex="1">
          <mxGeometry x="831" y="882.36" width="30" height="20" as="geometry" />
        </mxCell>
        <mxCell id="RHRKbL2DitLfpEAMd2Nn-155" style="edgeStyle=orthogonalEdgeStyle;rounded=0;orthogonalLoop=1;jettySize=auto;html=1;entryX=0.015;entryY=0.714;entryDx=0;entryDy=0;entryPerimeter=0;endArrow=oval;endFill=1;strokeWidth=1;" parent="1" source="RHRKbL2DitLfpEAMd2Nn-144" edge="1">
          <mxGeometry relative="1" as="geometry">
            <mxPoint x="876" y="901.36" as="sourcePoint" />
            <mxPoint x="882.4306600000002" y="942.7900000000001" as="targetPoint" />
            <Array as="points">
              <mxPoint x="876" y="922.36" />
              <mxPoint x="882" y="922.36" />
            </Array>
          </mxGeometry>
        </mxCell>
        <mxCell id="RHRKbL2DitLfpEAMd2Nn-144" value="b2" style="text;html=1;align=center;verticalAlign=middle;resizable=0;points=[];autosize=1;" parent="1" vertex="1">
          <mxGeometry x="861" y="882.36" width="30" height="20" as="geometry" />
        </mxCell>
        <mxCell id="RHRKbL2DitLfpEAMd2Nn-161" style="edgeStyle=orthogonalEdgeStyle;rounded=0;orthogonalLoop=1;jettySize=auto;html=1;endArrow=oval;endFill=1;strokeWidth=1;" parent="1" source="RHRKbL2DitLfpEAMd2Nn-145" edge="1">
          <mxGeometry relative="1" as="geometry">
            <mxPoint x="906" y="942.36" as="targetPoint" />
          </mxGeometry>
        </mxCell>
        <mxCell id="RHRKbL2DitLfpEAMd2Nn-145" value="b3" style="text;html=1;align=center;verticalAlign=middle;resizable=0;points=[];autosize=1;" parent="1" vertex="1">
          <mxGeometry x="891" y="882.36" width="30" height="20" as="geometry" />
        </mxCell>
        <mxCell id="RHRKbL2DitLfpEAMd2Nn-162" style="edgeStyle=orthogonalEdgeStyle;rounded=0;orthogonalLoop=1;jettySize=auto;html=1;entryX=-0.006;entryY=0.424;entryDx=0;entryDy=0;entryPerimeter=0;endArrow=none;endFill=0;strokeWidth=1;" parent="1" source="RHRKbL2DitLfpEAMd2Nn-146" target="RHRKbL2DitLfpEAMd2Nn-141" edge="1">
          <mxGeometry relative="1" as="geometry" />
        </mxCell>
        <mxCell id="RHRKbL2DitLfpEAMd2Nn-146" value="b4" style="text;html=1;align=center;verticalAlign=middle;resizable=0;points=[];autosize=1;" parent="1" vertex="1">
          <mxGeometry x="921" y="882.36" width="30" height="20" as="geometry" />
        </mxCell>
        <mxCell id="RHRKbL2DitLfpEAMd2Nn-167" style="edgeStyle=orthogonalEdgeStyle;rounded=0;orthogonalLoop=1;jettySize=auto;html=1;entryX=-0.009;entryY=0.289;entryDx=0;entryDy=0;entryPerimeter=0;startArrow=none;startFill=0;endArrow=none;endFill=0;strokeWidth=1;" parent="1" source="RHRKbL2DitLfpEAMd2Nn-148" target="RHRKbL2DitLfpEAMd2Nn-141" edge="1">
          <mxGeometry relative="1" as="geometry" />
        </mxCell>
        <mxCell id="RHRKbL2DitLfpEAMd2Nn-148" value="b5" style="text;html=1;align=center;verticalAlign=middle;resizable=0;points=[];autosize=1;" parent="1" vertex="1">
          <mxGeometry x="951" y="882.36" width="30" height="20" as="geometry" />
        </mxCell>
        <mxCell id="RHRKbL2DitLfpEAMd2Nn-169" style="edgeStyle=orthogonalEdgeStyle;rounded=0;orthogonalLoop=1;jettySize=auto;html=1;startArrow=none;startFill=0;endArrow=none;endFill=0;strokeWidth=1;" parent="1" source="RHRKbL2DitLfpEAMd2Nn-149" edge="1">
          <mxGeometry relative="1" as="geometry">
            <mxPoint x="981" y="942.36" as="targetPoint" />
          </mxGeometry>
        </mxCell>
        <mxCell id="RHRKbL2DitLfpEAMd2Nn-149" value="b6" style="text;html=1;align=center;verticalAlign=middle;resizable=0;points=[];autosize=1;" parent="1" vertex="1">
          <mxGeometry x="981" y="882.36" width="30" height="20" as="geometry" />
        </mxCell>
        <mxCell id="RHRKbL2DitLfpEAMd2Nn-160" style="edgeStyle=orthogonalEdgeStyle;rounded=0;orthogonalLoop=1;jettySize=auto;html=1;entryX=0.007;entryY=0.071;entryDx=0;entryDy=0;entryPerimeter=0;endArrow=none;endFill=0;strokeWidth=1;" parent="1" source="RHRKbL2DitLfpEAMd2Nn-150" target="RHRKbL2DitLfpEAMd2Nn-141" edge="1">
          <mxGeometry relative="1" as="geometry" />
        </mxCell>
        <mxCell id="RHRKbL2DitLfpEAMd2Nn-150" value="b7" style="text;html=1;align=center;verticalAlign=middle;resizable=0;points=[];autosize=1;" parent="1" vertex="1">
          <mxGeometry x="1011" y="882.36" width="30" height="20" as="geometry" />
        </mxCell>
        <mxCell id="1sBniW0PQ9mNnDQjFQEx-11" style="edgeStyle=orthogonalEdgeStyle;rounded=0;orthogonalLoop=1;jettySize=auto;html=1;entryX=0;entryY=0.5;entryDx=0;entryDy=0;endArrow=none;endFill=0;strokeWidth=1;" parent="1" source="RHRKbL2DitLfpEAMd2Nn-171" target="1sBniW0PQ9mNnDQjFQEx-7" edge="1">
          <mxGeometry relative="1" as="geometry" />
        </mxCell>
        <mxCell id="RHRKbL2DitLfpEAMd2Nn-171" value="" style="shape=or;whiteSpace=wrap;html=1;rounded=0;glass=0;sketch=0;strokeColor=#000000;strokeWidth=1;fillColor=#ffffff;gradientColor=none;rotation=90;" parent="1" vertex="1">
          <mxGeometry x="512.48" y="880" width="59" height="184.81" as="geometry" />
        </mxCell>
        <mxCell id="RHRKbL2DitLfpEAMd2Nn-172" style="edgeStyle=orthogonalEdgeStyle;rounded=0;orthogonalLoop=1;jettySize=auto;html=1;entryX=-0.004;entryY=0.944;entryDx=0;entryDy=0;entryPerimeter=0;endArrow=none;endFill=0;strokeWidth=1;" parent="1" source="RHRKbL2DitLfpEAMd2Nn-173" target="RHRKbL2DitLfpEAMd2Nn-171" edge="1">
          <mxGeometry relative="1" as="geometry" />
        </mxCell>
        <mxCell id="RHRKbL2DitLfpEAMd2Nn-173" value="b0" style="text;html=1;align=center;verticalAlign=middle;resizable=0;points=[];autosize=1;" parent="1" vertex="1">
          <mxGeometry x="421" y="882.36" width="30" height="20" as="geometry" />
        </mxCell>
        <mxCell id="RHRKbL2DitLfpEAMd2Nn-174" style="edgeStyle=orthogonalEdgeStyle;rounded=0;orthogonalLoop=1;jettySize=auto;html=1;entryX=0.005;entryY=0.845;entryDx=0;entryDy=0;entryPerimeter=0;endArrow=none;endFill=0;strokeWidth=1;" parent="1" source="RHRKbL2DitLfpEAMd2Nn-175" edge="1">
          <mxGeometry relative="1" as="geometry">
            <mxPoint x="469" y="901.36" as="sourcePoint" />
            <mxPoint x="481.22055" y="942.2000000000002" as="targetPoint" />
            <Array as="points">
              <mxPoint x="471" y="922.36" />
              <mxPoint x="481" y="922.36" />
            </Array>
          </mxGeometry>
        </mxCell>
        <mxCell id="RHRKbL2DitLfpEAMd2Nn-175" value="b1" style="text;html=1;align=center;verticalAlign=middle;resizable=0;points=[];autosize=1;" parent="1" vertex="1">
          <mxGeometry x="451" y="882.36" width="30" height="20" as="geometry" />
        </mxCell>
        <mxCell id="RHRKbL2DitLfpEAMd2Nn-176" style="edgeStyle=orthogonalEdgeStyle;rounded=0;orthogonalLoop=1;jettySize=auto;html=1;entryX=0.015;entryY=0.714;entryDx=0;entryDy=0;entryPerimeter=0;endArrow=none;endFill=0;strokeWidth=1;" parent="1" source="RHRKbL2DitLfpEAMd2Nn-177" edge="1">
          <mxGeometry relative="1" as="geometry">
            <mxPoint x="496" y="901.36" as="sourcePoint" />
            <mxPoint x="502.43066" y="942.7900000000001" as="targetPoint" />
            <Array as="points">
              <mxPoint x="496" y="922.36" />
              <mxPoint x="502" y="922.36" />
            </Array>
          </mxGeometry>
        </mxCell>
        <mxCell id="RHRKbL2DitLfpEAMd2Nn-177" value="b2" style="text;html=1;align=center;verticalAlign=middle;resizable=0;points=[];autosize=1;" parent="1" vertex="1">
          <mxGeometry x="481" y="882.36" width="30" height="20" as="geometry" />
        </mxCell>
        <mxCell id="RHRKbL2DitLfpEAMd2Nn-178" style="edgeStyle=orthogonalEdgeStyle;rounded=0;orthogonalLoop=1;jettySize=auto;html=1;endArrow=none;endFill=0;strokeWidth=1;" parent="1" source="RHRKbL2DitLfpEAMd2Nn-179" edge="1">
          <mxGeometry relative="1" as="geometry">
            <mxPoint x="526" y="942.36" as="targetPoint" />
          </mxGeometry>
        </mxCell>
        <mxCell id="RHRKbL2DitLfpEAMd2Nn-179" value="b3" style="text;html=1;align=center;verticalAlign=middle;resizable=0;points=[];autosize=1;" parent="1" vertex="1">
          <mxGeometry x="511" y="882.36" width="30" height="20" as="geometry" />
        </mxCell>
        <mxCell id="RHRKbL2DitLfpEAMd2Nn-180" style="edgeStyle=orthogonalEdgeStyle;rounded=0;orthogonalLoop=1;jettySize=auto;html=1;entryX=-0.006;entryY=0.424;entryDx=0;entryDy=0;entryPerimeter=0;endArrow=none;endFill=0;strokeWidth=1;" parent="1" source="RHRKbL2DitLfpEAMd2Nn-181" target="RHRKbL2DitLfpEAMd2Nn-171" edge="1">
          <mxGeometry relative="1" as="geometry" />
        </mxCell>
        <mxCell id="RHRKbL2DitLfpEAMd2Nn-181" value="b4" style="text;html=1;align=center;verticalAlign=middle;resizable=0;points=[];autosize=1;" parent="1" vertex="1">
          <mxGeometry x="541" y="882.36" width="30" height="20" as="geometry" />
        </mxCell>
        <mxCell id="RHRKbL2DitLfpEAMd2Nn-182" style="edgeStyle=orthogonalEdgeStyle;rounded=0;orthogonalLoop=1;jettySize=auto;html=1;entryX=-0.009;entryY=0.289;entryDx=0;entryDy=0;entryPerimeter=0;startArrow=none;startFill=0;endArrow=none;endFill=0;strokeWidth=1;" parent="1" source="RHRKbL2DitLfpEAMd2Nn-183" target="RHRKbL2DitLfpEAMd2Nn-171" edge="1">
          <mxGeometry relative="1" as="geometry" />
        </mxCell>
        <mxCell id="RHRKbL2DitLfpEAMd2Nn-183" value="b5" style="text;html=1;align=center;verticalAlign=middle;resizable=0;points=[];autosize=1;" parent="1" vertex="1">
          <mxGeometry x="571" y="882.36" width="30" height="20" as="geometry" />
        </mxCell>
        <mxCell id="RHRKbL2DitLfpEAMd2Nn-184" style="edgeStyle=orthogonalEdgeStyle;rounded=0;orthogonalLoop=1;jettySize=auto;html=1;startArrow=none;startFill=0;endArrow=none;endFill=0;strokeWidth=1;" parent="1" source="RHRKbL2DitLfpEAMd2Nn-185" edge="1">
          <mxGeometry relative="1" as="geometry">
            <mxPoint x="601" y="942.36" as="targetPoint" />
          </mxGeometry>
        </mxCell>
        <mxCell id="RHRKbL2DitLfpEAMd2Nn-185" value="b6" style="text;html=1;align=center;verticalAlign=middle;resizable=0;points=[];autosize=1;" parent="1" vertex="1">
          <mxGeometry x="601" y="882.36" width="30" height="20" as="geometry" />
        </mxCell>
        <mxCell id="RHRKbL2DitLfpEAMd2Nn-186" style="edgeStyle=orthogonalEdgeStyle;rounded=0;orthogonalLoop=1;jettySize=auto;html=1;entryX=0.007;entryY=0.071;entryDx=0;entryDy=0;entryPerimeter=0;endArrow=none;endFill=0;strokeWidth=1;" parent="1" source="RHRKbL2DitLfpEAMd2Nn-187" target="RHRKbL2DitLfpEAMd2Nn-171" edge="1">
          <mxGeometry relative="1" as="geometry" />
        </mxCell>
        <mxCell id="RHRKbL2DitLfpEAMd2Nn-187" value="b7" style="text;html=1;align=center;verticalAlign=middle;resizable=0;points=[];autosize=1;" parent="1" vertex="1">
          <mxGeometry x="631" y="882.36" width="30" height="20" as="geometry" />
        </mxCell>
        <mxCell id="RHRKbL2DitLfpEAMd2Nn-190" value="" style="rounded=0;whiteSpace=wrap;html=1;glass=0;sketch=0;strokeWidth=4;fillColor=none;" parent="1" vertex="1">
          <mxGeometry x="802" y="916.01" width="239" height="206.35" as="geometry" />
        </mxCell>
        <mxCell id="RHRKbL2DitLfpEAMd2Nn-191" value="" style="rounded=0;whiteSpace=wrap;html=1;glass=0;sketch=0;strokeWidth=4;fillColor=none;" parent="1" vertex="1">
          <mxGeometry x="421" y="913.4300000000001" width="239" height="209.64" as="geometry" />
        </mxCell>
        <mxCell id="RHRKbL2DitLfpEAMd2Nn-216" style="edgeStyle=orthogonalEdgeStyle;rounded=0;orthogonalLoop=1;jettySize=auto;html=1;entryX=0.175;entryY=0.75;entryDx=0;entryDy=0;entryPerimeter=0;startArrow=none;startFill=0;endArrow=none;endFill=0;strokeWidth=1;" parent="1" source="RHRKbL2DitLfpEAMd2Nn-193" target="RHRKbL2DitLfpEAMd2Nn-215" edge="1">
          <mxGeometry relative="1" as="geometry" />
        </mxCell>
        <mxCell id="RHRKbL2DitLfpEAMd2Nn-193" value="" style="shape=or;whiteSpace=wrap;html=1;rounded=0;glass=0;sketch=0;strokeColor=#000000;strokeWidth=1;fillColor=#ffffff;gradientColor=none;rotation=90;" parent="1" vertex="1">
          <mxGeometry x="108.46000000000004" y="933.92" width="24.93" height="50" as="geometry" />
        </mxCell>
        <mxCell id="RHRKbL2DitLfpEAMd2Nn-240" style="edgeStyle=orthogonalEdgeStyle;rounded=0;orthogonalLoop=1;jettySize=auto;html=1;entryX=0;entryY=0.75;entryDx=0;entryDy=0;entryPerimeter=0;startArrow=none;startFill=0;endArrow=none;endFill=0;strokeWidth=1;" parent="1" source="RHRKbL2DitLfpEAMd2Nn-201" target="RHRKbL2DitLfpEAMd2Nn-213" edge="1">
          <mxGeometry relative="1" as="geometry">
            <Array as="points">
              <mxPoint x="121.47000000000003" y="925" />
              <mxPoint x="181.47000000000003" y="925" />
            </Array>
          </mxGeometry>
        </mxCell>
        <mxCell id="RHRKbL2DitLfpEAMd2Nn-241" style="edgeStyle=orthogonalEdgeStyle;rounded=0;orthogonalLoop=1;jettySize=auto;html=1;entryX=0;entryY=0.75;entryDx=0;entryDy=0;entryPerimeter=0;startArrow=none;startFill=0;endArrow=none;endFill=0;strokeWidth=1;" parent="1" source="RHRKbL2DitLfpEAMd2Nn-201" target="RHRKbL2DitLfpEAMd2Nn-214" edge="1">
          <mxGeometry relative="1" as="geometry">
            <Array as="points">
              <mxPoint x="121.47000000000003" y="925" />
              <mxPoint x="254.47000000000003" y="925" />
            </Array>
          </mxGeometry>
        </mxCell>
        <mxCell id="RHRKbL2DitLfpEAMd2Nn-201" value="b3" style="text;html=1;align=center;verticalAlign=middle;resizable=0;points=[];autosize=1;" parent="1" vertex="1">
          <mxGeometry x="105.92000000000007" y="880" width="30" height="20" as="geometry" />
        </mxCell>
        <mxCell id="RHRKbL2DitLfpEAMd2Nn-242" style="edgeStyle=orthogonalEdgeStyle;rounded=0;orthogonalLoop=1;jettySize=auto;html=1;entryX=0;entryY=0.75;entryDx=0;entryDy=0;entryPerimeter=0;startArrow=none;startFill=0;endArrow=none;endFill=0;strokeWidth=1;" parent="1" source="RHRKbL2DitLfpEAMd2Nn-203" target="RHRKbL2DitLfpEAMd2Nn-193" edge="1">
          <mxGeometry relative="1" as="geometry">
            <Array as="points">
              <mxPoint x="193.47000000000003" y="935" />
              <mxPoint x="108.47000000000003" y="935" />
            </Array>
          </mxGeometry>
        </mxCell>
        <mxCell id="RHRKbL2DitLfpEAMd2Nn-243" style="edgeStyle=orthogonalEdgeStyle;rounded=0;orthogonalLoop=1;jettySize=auto;html=1;entryX=0;entryY=0.25;entryDx=0;entryDy=0;entryPerimeter=0;startArrow=none;startFill=0;endArrow=none;endFill=0;strokeWidth=1;" parent="1" source="RHRKbL2DitLfpEAMd2Nn-203" target="RHRKbL2DitLfpEAMd2Nn-213" edge="1">
          <mxGeometry relative="1" as="geometry">
            <Array as="points">
              <mxPoint x="193.47000000000003" y="935" />
              <mxPoint x="206.47000000000003" y="935" />
            </Array>
          </mxGeometry>
        </mxCell>
        <mxCell id="RHRKbL2DitLfpEAMd2Nn-203" value="b4" style="text;html=1;align=center;verticalAlign=middle;resizable=0;points=[];autosize=1;" parent="1" vertex="1">
          <mxGeometry x="178.92000000000007" y="880" width="30" height="20" as="geometry" />
        </mxCell>
        <mxCell id="RHRKbL2DitLfpEAMd2Nn-244" style="edgeStyle=orthogonalEdgeStyle;rounded=0;orthogonalLoop=1;jettySize=auto;html=1;entryX=0;entryY=0.25;entryDx=0;entryDy=0;entryPerimeter=0;startArrow=none;startFill=0;endArrow=none;endFill=0;strokeWidth=1;" parent="1" source="RHRKbL2DitLfpEAMd2Nn-205" target="RHRKbL2DitLfpEAMd2Nn-214" edge="1">
          <mxGeometry relative="1" as="geometry">
            <Array as="points">
              <mxPoint x="267.47" y="915" />
              <mxPoint x="279.47" y="915" />
            </Array>
          </mxGeometry>
        </mxCell>
        <mxCell id="RHRKbL2DitLfpEAMd2Nn-245" style="edgeStyle=orthogonalEdgeStyle;rounded=0;orthogonalLoop=1;jettySize=auto;html=1;entryX=0;entryY=0.25;entryDx=0;entryDy=0;entryPerimeter=0;startArrow=none;startFill=0;endArrow=none;endFill=0;strokeWidth=1;" parent="1" source="RHRKbL2DitLfpEAMd2Nn-205" target="RHRKbL2DitLfpEAMd2Nn-193" edge="1">
          <mxGeometry relative="1" as="geometry">
            <Array as="points">
              <mxPoint x="267.47" y="915" />
              <mxPoint x="133.47000000000003" y="915" />
            </Array>
          </mxGeometry>
        </mxCell>
        <mxCell id="RHRKbL2DitLfpEAMd2Nn-205" value="b5" style="text;html=1;align=center;verticalAlign=middle;resizable=0;points=[];autosize=1;" parent="1" vertex="1">
          <mxGeometry x="251.93000000000006" y="880" width="30" height="20" as="geometry" />
        </mxCell>
        <mxCell id="RHRKbL2DitLfpEAMd2Nn-211" value="" style="rounded=0;whiteSpace=wrap;html=1;glass=0;sketch=0;strokeWidth=4;fillColor=none;" parent="1" vertex="1">
          <mxGeometry x="68" y="905" width="250" height="243.75" as="geometry" />
        </mxCell>
        <mxCell id="RHRKbL2DitLfpEAMd2Nn-217" style="edgeStyle=orthogonalEdgeStyle;rounded=0;orthogonalLoop=1;jettySize=auto;html=1;entryX=0.25;entryY=0.5;entryDx=0;entryDy=0;entryPerimeter=0;startArrow=none;startFill=0;endArrow=none;endFill=0;strokeWidth=1;" parent="1" source="RHRKbL2DitLfpEAMd2Nn-213" target="RHRKbL2DitLfpEAMd2Nn-215" edge="1">
          <mxGeometry relative="1" as="geometry" />
        </mxCell>
        <mxCell id="RHRKbL2DitLfpEAMd2Nn-213" value="" style="shape=or;whiteSpace=wrap;html=1;rounded=0;glass=0;sketch=0;strokeColor=#000000;strokeWidth=1;fillColor=#ffffff;gradientColor=none;rotation=90;" parent="1" vertex="1">
          <mxGeometry x="181.45000000000005" y="935" width="24.93" height="50" as="geometry" />
        </mxCell>
        <mxCell id="RHRKbL2DitLfpEAMd2Nn-218" style="edgeStyle=orthogonalEdgeStyle;rounded=0;orthogonalLoop=1;jettySize=auto;html=1;entryX=0.186;entryY=0.175;entryDx=0;entryDy=0;entryPerimeter=0;startArrow=none;startFill=0;endArrow=none;endFill=0;strokeWidth=1;" parent="1" source="RHRKbL2DitLfpEAMd2Nn-214" target="RHRKbL2DitLfpEAMd2Nn-215" edge="1">
          <mxGeometry relative="1" as="geometry" />
        </mxCell>
        <mxCell id="RHRKbL2DitLfpEAMd2Nn-214" value="" style="shape=or;whiteSpace=wrap;html=1;rounded=0;glass=0;sketch=0;strokeColor=#000000;strokeWidth=1;fillColor=#ffffff;gradientColor=none;rotation=90;" parent="1" vertex="1">
          <mxGeometry x="254.47000000000003" y="933.92" width="24.93" height="50" as="geometry" />
        </mxCell>
        <mxCell id="1sBniW0PQ9mNnDQjFQEx-16" style="edgeStyle=orthogonalEdgeStyle;rounded=0;orthogonalLoop=1;jettySize=auto;html=1;entryX=0;entryY=0.5;entryDx=0;entryDy=0;endArrow=none;endFill=0;strokeWidth=1;" parent="1" source="RHRKbL2DitLfpEAMd2Nn-215" target="1sBniW0PQ9mNnDQjFQEx-12" edge="1">
          <mxGeometry relative="1" as="geometry" />
        </mxCell>
        <mxCell id="RHRKbL2DitLfpEAMd2Nn-215" value="" style="shape=xor;whiteSpace=wrap;html=1;rounded=0;glass=0;sketch=0;strokeColor=#000000;strokeWidth=1;fillColor=#ffffff;gradientColor=none;rotation=90;" parent="1" vertex="1">
          <mxGeometry x="173.18000000000006" y="965.93" width="41.47" height="119.63" as="geometry" />
        </mxCell>
        <mxCell id="RHRKbL2DitLfpEAMd2Nn-247" value="" style="ellipse;whiteSpace=wrap;html=1;aspect=fixed;rounded=0;glass=0;sketch=0;strokeColor=#000000;strokeWidth=1;gradientColor=none;fillColor=#050505;perimeterSpacing=0;" parent="1" vertex="1">
          <mxGeometry x="177" y="920.87" width="10" height="10" as="geometry" />
        </mxCell>
        <mxCell id="RHRKbL2DitLfpEAMd2Nn-251" value="" style="ellipse;whiteSpace=wrap;html=1;aspect=fixed;rounded=0;glass=0;sketch=0;strokeColor=#000000;strokeWidth=1;gradientColor=none;fillColor=#050505;perimeterSpacing=0;" parent="1" vertex="1">
          <mxGeometry x="188.6500000000001" y="929.87" width="10" height="10" as="geometry" />
        </mxCell>
        <mxCell id="RHRKbL2DitLfpEAMd2Nn-252" value="" style="ellipse;whiteSpace=wrap;html=1;aspect=fixed;rounded=0;glass=0;sketch=0;strokeColor=#000000;strokeWidth=1;gradientColor=none;fillColor=#050505;perimeterSpacing=0;" parent="1" vertex="1">
          <mxGeometry x="261.93000000000006" y="909.87" width="10" height="10" as="geometry" />
        </mxCell>
        <mxCell id="RHRKbL2DitLfpEAMd2Nn-254" value="" style="ellipse;whiteSpace=wrap;html=1;aspect=fixed;rounded=0;glass=0;sketch=0;strokeColor=#000000;strokeWidth=1;gradientColor=none;fillColor=#050505;perimeterSpacing=0;" parent="1" vertex="1">
          <mxGeometry x="666" y="631" width="10" height="10" as="geometry" />
        </mxCell>
        <mxCell id="1sBniW0PQ9mNnDQjFQEx-20" style="edgeStyle=orthogonalEdgeStyle;rounded=0;orthogonalLoop=1;jettySize=auto;html=1;endArrow=none;endFill=0;strokeWidth=1;" parent="1" source="1sBniW0PQ9mNnDQjFQEx-1" edge="1">
          <mxGeometry relative="1" as="geometry">
            <mxPoint x="1019.9999999999995" y="1162.3600000000001" as="targetPoint" />
          </mxGeometry>
        </mxCell>
        <mxCell id="1sBniW0PQ9mNnDQjFQEx-21" value="START" style="edgeLabel;html=1;align=center;verticalAlign=middle;resizable=0;points=[];" parent="1sBniW0PQ9mNnDQjFQEx-20" vertex="1" connectable="0">
          <mxGeometry x="0.767" y="-1" relative="1" as="geometry">
            <mxPoint as="offset" />
          </mxGeometry>
        </mxCell>
        <mxCell id="1sBniW0PQ9mNnDQjFQEx-1" value="START&lt;br&gt;REG" style="rounded=0;whiteSpace=wrap;html=1;glass=0;sketch=0;strokeWidth=1;" parent="1" vertex="1">
          <mxGeometry x="953.56" y="1041.67" width="40" height="60" as="geometry" />
        </mxCell>
        <mxCell id="1sBniW0PQ9mNnDQjFQEx-2" style="edgeStyle=orthogonalEdgeStyle;rounded=0;orthogonalLoop=1;jettySize=auto;html=1;entryX=0.25;entryY=1;entryDx=0;entryDy=0;startArrow=none;startFill=0;endArrow=none;endFill=0;strokeWidth=1;" parent="1" source="1sBniW0PQ9mNnDQjFQEx-3" target="1sBniW0PQ9mNnDQjFQEx-1" edge="1">
          <mxGeometry relative="1" as="geometry">
            <Array as="points">
              <mxPoint x="963.5" y="1109.68" />
            </Array>
          </mxGeometry>
        </mxCell>
        <mxCell id="1sBniW0PQ9mNnDQjFQEx-3" value="en" style="text;html=1;align=center;verticalAlign=middle;resizable=0;points=[];autosize=1;" parent="1" vertex="1">
          <mxGeometry x="760" y="1091.68" width="30" height="20" as="geometry" />
        </mxCell>
        <mxCell id="1sBniW0PQ9mNnDQjFQEx-4" value="" style="triangle;whiteSpace=wrap;html=1;rotation=-90;" parent="1" vertex="1">
          <mxGeometry x="983.53" y="1091.68" width="10.03" height="9.99" as="geometry" />
        </mxCell>
        <mxCell id="1sBniW0PQ9mNnDQjFQEx-18" value="STOP" style="edgeStyle=orthogonalEdgeStyle;rounded=0;orthogonalLoop=1;jettySize=auto;html=1;endArrow=none;endFill=0;strokeWidth=1;" parent="1" source="1sBniW0PQ9mNnDQjFQEx-7" edge="1">
          <mxGeometry x="1" relative="1" as="geometry">
            <mxPoint x="639.9999999999995" y="1143.07" as="targetPoint" />
            <mxPoint as="offset" />
          </mxGeometry>
        </mxCell>
        <mxCell id="1sBniW0PQ9mNnDQjFQEx-7" value="STOP&lt;br&gt;REG" style="rounded=0;whiteSpace=wrap;html=1;glass=0;sketch=0;strokeWidth=1;" parent="1" vertex="1">
          <mxGeometry x="562.53" y="1041.6699999999998" width="40" height="60" as="geometry" />
        </mxCell>
        <mxCell id="1sBniW0PQ9mNnDQjFQEx-8" style="edgeStyle=orthogonalEdgeStyle;rounded=0;orthogonalLoop=1;jettySize=auto;html=1;entryX=0.25;entryY=1;entryDx=0;entryDy=0;startArrow=none;startFill=0;endArrow=none;endFill=0;strokeWidth=1;" parent="1" source="1sBniW0PQ9mNnDQjFQEx-9" target="1sBniW0PQ9mNnDQjFQEx-7" edge="1">
          <mxGeometry relative="1" as="geometry">
            <Array as="points">
              <mxPoint x="572.47" y="1109.6799999999998" />
            </Array>
          </mxGeometry>
        </mxCell>
        <mxCell id="1sBniW0PQ9mNnDQjFQEx-9" value="en" style="text;html=1;align=center;verticalAlign=middle;resizable=0;points=[];autosize=1;" parent="1" vertex="1">
          <mxGeometry x="380" y="1091.6799999999998" width="30" height="20" as="geometry" />
        </mxCell>
        <mxCell id="1sBniW0PQ9mNnDQjFQEx-10" value="" style="triangle;whiteSpace=wrap;html=1;rotation=-90;" parent="1" vertex="1">
          <mxGeometry x="592.5" y="1091.6799999999998" width="10.03" height="9.99" as="geometry" />
        </mxCell>
        <mxCell id="1sBniW0PQ9mNnDQjFQEx-19" value="VOTE" style="edgeStyle=orthogonalEdgeStyle;rounded=0;orthogonalLoop=1;jettySize=auto;html=1;endArrow=none;endFill=0;strokeWidth=1;" parent="1" source="1sBniW0PQ9mNnDQjFQEx-12" edge="1">
          <mxGeometry x="1" relative="1" as="geometry">
            <mxPoint x="287" y="1168.75" as="targetPoint" />
            <mxPoint as="offset" />
          </mxGeometry>
        </mxCell>
        <mxCell id="1sBniW0PQ9mNnDQjFQEx-12" value="VOTER&lt;br&gt;REG" style="rounded=0;whiteSpace=wrap;html=1;glass=0;sketch=0;strokeWidth=1;fillColor=#dae8fc;strokeColor=#6c8ebf;" parent="1" vertex="1">
          <mxGeometry x="215.52999999999997" y="1067.71" width="40" height="60" as="geometry" />
        </mxCell>
        <mxCell id="1sBniW0PQ9mNnDQjFQEx-13" value="en" style="edgeStyle=orthogonalEdgeStyle;rounded=0;orthogonalLoop=1;jettySize=auto;html=1;entryX=0.25;entryY=1;entryDx=0;entryDy=0;startArrow=none;startFill=0;endArrow=none;endFill=0;strokeWidth=1;" parent="1" target="1sBniW0PQ9mNnDQjFQEx-12" edge="1">
          <mxGeometry x="-0.9199" relative="1" as="geometry">
            <Array as="points">
              <mxPoint x="225.47000000000003" y="1135.72" />
            </Array>
            <mxPoint x="42" y="1127.71" as="sourcePoint" />
            <mxPoint as="offset" />
          </mxGeometry>
        </mxCell>
        <mxCell id="1sBniW0PQ9mNnDQjFQEx-15" value="" style="triangle;whiteSpace=wrap;html=1;rotation=-90;" parent="1" vertex="1">
          <mxGeometry x="245.5" y="1117.72" width="10.03" height="9.99" as="geometry" />
        </mxCell>
        <mxCell id="1sBniW0PQ9mNnDQjFQEx-26" value="RX CTRL" style="edgeStyle=orthogonalEdgeStyle;rounded=0;orthogonalLoop=1;jettySize=auto;html=1;endArrow=classic;endFill=1;strokeWidth=1;" parent="1" source="1sBniW0PQ9mNnDQjFQEx-23" edge="1">
          <mxGeometry relative="1" as="geometry">
            <mxPoint x="1046.5" y="247.89" as="targetPoint" />
            <Array as="points">
              <mxPoint x="1046.5" y="247.89" />
            </Array>
          </mxGeometry>
        </mxCell>
        <mxCell id="1sBniW0PQ9mNnDQjFQEx-23" value="RX CONTROL UNIT" style="whiteSpace=wrap;html=1;strokeWidth=1;fillColor=#d0cee2;strokeColor=#56517e;" parent="1" vertex="1">
          <mxGeometry x="845.5" y="203.13" width="120" height="90" as="geometry" />
        </mxCell>
        <mxCell id="1sBniW0PQ9mNnDQjFQEx-25" value="RX STATUS" style="endArrow=classic;html=1;strokeWidth=1;entryX=0;entryY=0.5;entryDx=0;entryDy=0;" parent="1" target="1sBniW0PQ9mNnDQjFQEx-23" edge="1">
          <mxGeometry x="-0.2006" y="-1" width="50" height="50" relative="1" as="geometry">
            <mxPoint x="765.5" y="247.89" as="sourcePoint" />
            <mxPoint x="845.5" y="146.89" as="targetPoint" />
            <Array as="points">
              <mxPoint x="825.5" y="246.89" />
            </Array>
            <mxPoint as="offset" />
          </mxGeometry>
        </mxCell>
        <mxCell id="CWKsy_nlpjRAzrzyiud9-1" value="START&lt;br&gt;REG" style="rounded=0;whiteSpace=wrap;html=1;glass=0;sketch=0;strokeWidth=1;fillColor=#dae8fc;strokeColor=#6c8ebf;" parent="1" vertex="1">
          <mxGeometry x="953.56" y="1042.3600000000001" width="40" height="60" as="geometry" />
        </mxCell>
        <mxCell id="CWKsy_nlpjRAzrzyiud9-2" value="STOP&lt;br&gt;REG" style="rounded=0;whiteSpace=wrap;html=1;glass=0;sketch=0;strokeWidth=1;fillColor=#dae8fc;strokeColor=#6c8ebf;" parent="1" vertex="1">
          <mxGeometry x="562.53" y="1042.36" width="40" height="60" as="geometry" />
        </mxCell>
        <mxCell id="Q8k3sArKD3jvTUDeqq7h-1" value="shift_sample" style="edgeStyle=orthogonalEdgeStyle;rounded=0;orthogonalLoop=1;jettySize=auto;html=1;" parent="1" source="wujRa81Mza8_L-a6n5G7-1" edge="1">
          <mxGeometry relative="1" as="geometry">
            <mxPoint x="410" y="640" as="targetPoint" />
            <Array as="points">
              <mxPoint x="440" y="635" />
              <mxPoint x="440" y="635" />
            </Array>
          </mxGeometry>
        </mxCell>
        <mxCell id="wujRa81Mza8_L-a6n5G7-1" value="" style="shape=xor;whiteSpace=wrap;html=1;rotation=-180;" parent="1" vertex="1">
          <mxGeometry x="481" y="525.7" width="60" height="218.61" as="geometry" />
        </mxCell>
        <mxCell id="wujRa81Mza8_L-a6n5G7-5" value="" style="edgeStyle=orthogonalEdgeStyle;rounded=0;orthogonalLoop=1;jettySize=auto;html=1;endArrow=none;endFill=0;" parent="1" source="wujRa81Mza8_L-a6n5G7-2" edge="1">
          <mxGeometry relative="1" as="geometry">
            <mxPoint x="410" y="238" as="targetPoint" />
          </mxGeometry>
        </mxCell>
        <mxCell id="wujRa81Mza8_L-a6n5G7-2" value="en" style="text;html=1;align=center;verticalAlign=middle;resizable=0;points=[];autosize=1;" parent="1" vertex="1">
          <mxGeometry x="350" y="228.13" width="30" height="20" as="geometry" />
        </mxCell>
        <mxCell id="wujRa81Mza8_L-a6n5G7-6" value="" style="edgeStyle=orthogonalEdgeStyle;rounded=0;orthogonalLoop=1;jettySize=auto;html=1;endArrow=none;endFill=0;entryX=0;entryY=0.25;entryDx=0;entryDy=0;" parent="1" source="wujRa81Mza8_L-a6n5G7-3" target="RHRKbL2DitLfpEAMd2Nn-113" edge="1">
          <mxGeometry relative="1" as="geometry" />
        </mxCell>
        <mxCell id="wujRa81Mza8_L-a6n5G7-3" value="en" style="text;html=1;align=center;verticalAlign=middle;resizable=0;points=[];autosize=1;" parent="1" vertex="1">
          <mxGeometry x="350" y="308.12" width="30" height="20" as="geometry" />
        </mxCell>
        <mxCell id="wujRa81Mza8_L-a6n5G7-32" value="tc" style="edgeStyle=orthogonalEdgeStyle;rounded=0;orthogonalLoop=1;jettySize=auto;html=1;entryX=0.5;entryY=1;entryDx=0;entryDy=0;endArrow=none;endFill=0;" parent="1" source="wujRa81Mza8_L-a6n5G7-30" target="nKllNJIWQF2YU-FmXI6r-7" edge="1">
          <mxGeometry relative="1" as="geometry" />
        </mxCell>
        <mxCell id="wujRa81Mza8_L-a6n5G7-30" value="&quot;7&quot;" style="text;html=1;align=center;verticalAlign=middle;resizable=0;points=[];autosize=1;" parent="1" vertex="1">
          <mxGeometry x="311" y="702.64" width="30" height="20" as="geometry" />
        </mxCell>
        <mxCell id="wujRa81Mza8_L-a6n5G7-33" value="tc" style="edgeStyle=orthogonalEdgeStyle;rounded=0;orthogonalLoop=1;jettySize=auto;html=1;entryX=0.5;entryY=1;entryDx=0;entryDy=0;endArrow=none;endFill=0;" parent="1" source="wujRa81Mza8_L-a6n5G7-31" target="EzJb_2AODaSsY35CWrnH-27" edge="1">
          <mxGeometry relative="1" as="geometry" />
        </mxCell>
        <mxCell id="wujRa81Mza8_L-a6n5G7-31" value="136" style="text;html=1;align=center;verticalAlign=middle;resizable=0;points=[];autosize=1;" parent="1" vertex="1">
          <mxGeometry x="766.03" y="707.51" width="40" height="20" as="geometry" />
        </mxCell>
        <mxCell id="L7aabip-E4mEwhnxGkzP-1" value="" style="triangle;whiteSpace=wrap;html=1;rotation=-90;" vertex="1" parent="1">
          <mxGeometry x="520.03" y="258.34000000000003" width="9.97" height="9.79" as="geometry" />
        </mxCell>
        <mxCell id="L7aabip-E4mEwhnxGkzP-2" value="" style="triangle;whiteSpace=wrap;html=1;rotation=-90;" vertex="1" parent="1">
          <mxGeometry x="521.03" y="338.33000000000004" width="9.97" height="9.79" as="geometry" />
        </mxCell>
        <mxCell id="L7aabip-E4mEwhnxGkzP-3" value="clear" style="endArrow=none;html=1;entryX=0;entryY=0.75;entryDx=0;entryDy=0;" edge="1" parent="1" target="CWKsy_nlpjRAzrzyiud9-1">
          <mxGeometry x="-1" width="50" height="50" relative="1" as="geometry">
            <mxPoint x="780" y="1087" as="sourcePoint" />
            <mxPoint x="760" y="1020" as="targetPoint" />
            <mxPoint as="offset" />
          </mxGeometry>
        </mxCell>
        <mxCell id="L7aabip-E4mEwhnxGkzP-4" value="" style="triangle;whiteSpace=wrap;html=1;rotation=-90;" vertex="1" parent="1">
          <mxGeometry x="592.56" y="1091.68" width="9.97" height="9.79" as="geometry" />
        </mxCell>
        <mxCell id="L7aabip-E4mEwhnxGkzP-5" value="" style="triangle;whiteSpace=wrap;html=1;rotation=-90;" vertex="1" parent="1">
          <mxGeometry x="983.5899999999999" y="1091.68" width="9.97" height="9.79" as="geometry" />
        </mxCell>
        <mxCell id="L7aabip-E4mEwhnxGkzP-7" value="" style="ellipse;whiteSpace=wrap;html=1;aspect=fixed;rounded=0;glass=0;sketch=0;strokeColor=#000000;strokeWidth=1;gradientColor=none;fillColor=#050505;perimeterSpacing=0;" vertex="1" parent="1">
          <mxGeometry x="551" y="614.79" width="10" height="10" as="geometry" />
        </mxCell>
        <mxCell id="L7aabip-E4mEwhnxGkzP-8" style="edgeStyle=orthogonalEdgeStyle;rounded=0;orthogonalLoop=1;jettySize=auto;html=1;entryX=0.233;entryY=0.585;entryDx=0;entryDy=0;entryPerimeter=0;endArrow=none;endFill=0;" edge="1" parent="1" source="UPPR47DDisOAXcnvOgVC-6" target="L7aabip-E4mEwhnxGkzP-7">
          <mxGeometry relative="1" as="geometry">
            <mxPoint x="576" y="620" as="sourcePoint" />
            <mxPoint x="527.02" y="616.42315" as="targetPoint" />
            <Array as="points">
              <mxPoint x="556" y="620" />
              <mxPoint x="556" y="616" />
            </Array>
          </mxGeometry>
        </mxCell>
        <mxCell id="L7aabip-E4mEwhnxGkzP-9" value="" style="ellipse;whiteSpace=wrap;html=1;aspect=fixed;rounded=0;glass=0;sketch=0;strokeColor=#000000;strokeWidth=1;gradientColor=none;fillColor=#050505;perimeterSpacing=0;" vertex="1" parent="1">
          <mxGeometry x="565" y="735" width="10" height="10" as="geometry" />
        </mxCell>
      </root>
    </mxGraphModel>
  </diagram>
</mxfile>
